<svg xmlns="http://www.w3.org/2000/svg" height="887" width="960.0" font-size="16" font-family="sans-serif" stroke-width="2">
<g transform="translate(10.0 0)">
<text fill="hsl(0, 100%, 40%)" y="22">1000.Data.Fixed.Decimal.Decimal Int128 10.+ (1000x times) 953  ns</text>
<g>
<title>953  ns ±  91 ns</title>
<rect y="28" rx="5" height="22" width="0.19726088924146157" fill="hsl(0, 100%, 80%)" stroke="hsl(0, 100%, 55%)" />
<g stroke="hsl(0, 100%, 40%)"><line x1="0.17850975336473343" x2="0.2160120251181897" y1="39" y2="39" />
<line x1="0.17850975336473343" x2="0.17850975336473343" y1="33" y2="45" />
<line x1="0.2160120251181897" x2="0.2160120251181897" y1="33" y2="45" />
</g>
</g>
<text fill="hsl(22, 100%, 40%)" y="77">1000.Data.Fixed.Decimal.Decimal Int128 10.- (1000x times) 2.12 μs</text>
<g>
<title>2.12 μs ± 171 ns</title>
<rect y="83" rx="5" height="22" width="0.43985800628152555" fill="hsl(22, 100%, 80%)" stroke="hsl(22, 100%, 55%)" />
<g stroke="hsl(22, 100%, 40%)"><line x1="0.404411493141349" x2="0.4753045194217021" y1="94" y2="94" />
<line x1="0.404411493141349" x2="0.404411493141349" y1="88" y2="100" />
<line x1="0.4753045194217021" x2="0.4753045194217021" y1="88" y2="100" />
</g>
</g>
<text fill="hsl(45, 100%, 40%)" y="132">1000.Data.Fixed.Decimal.Decimal Int128 10.* (1000x times) 640  μs</text>
<g>
<title>640  μs ±  53 μs</title>
<rect y="138" rx="5" height="22" width="132.58480582965237" fill="hsl(45, 100%, 80%)" stroke="hsl(45, 100%, 55%)" />
<g stroke="hsl(45, 100%, 40%)"><line x1="121.64816296673511" x2="143.5214486925696" y1="149" y2="149" />
<line x1="121.64816296673511" x2="121.64816296673511" y1="143" y2="155" />
<line x1="143.5214486925696" x2="143.5214486925696" y1="143" y2="155" />
</g>
</g>
<text fill="hsl(67, 100%, 40%)" y="187">1000.Data.Fixed.Decimal.Decimal Int128 10./ (1000x times) 671  μs</text>
<g>
<title>671  μs ±  56 μs</title>
<rect y="193" rx="5" height="22" width="138.86787711874624" fill="hsl(67, 100%, 80%)" stroke="hsl(67, 100%, 55%)" />
<g stroke="hsl(67, 100%, 40%)"><line x1="127.21903440917134" x2="150.51671982832113" y1="204" y2="204" />
<line x1="127.21903440917134" x2="127.21903440917134" y1="198" y2="210" />
<line x1="150.51671982832113" x2="150.51671982832113" y1="198" y2="210" />
</g>
</g>
<text fill="hsl(90, 100%, 40%)" y="242">1000.Data.Fixed.Decimal.Decimal Int256 10.+ (1000x times) 3.12 μs</text>
<g>
<title>3.12 μs ± 188 ns</title>
<rect y="248" rx="5" height="22" width="0.6462702101799066" fill="hsl(90, 100%, 80%)" stroke="hsl(90, 100%, 55%)" />
<g stroke="hsl(90, 100%, 40%)"><line x1="0.6072811992198278" x2="0.6852592211399854" y1="259" y2="259" />
<line x1="0.6072811992198278" x2="0.6072811992198278" y1="253" y2="265" />
<line x1="0.6852592211399854" x2="0.6852592211399854" y1="253" y2="265" />
</g>
</g>
<text fill="hsl(112, 100%, 40%)" y="297">1000.Data.Fixed.Decimal.Decimal Int256 10.- (1000x times) 5.33 μs</text>
<g>
<title>5.33 μs ± 288 ns</title>
<rect y="303" rx="5" height="22" width="1.1041078216579547" fill="hsl(112, 100%, 80%)" stroke="hsl(112, 100%, 55%)" />
<g stroke="hsl(112, 100%, 40%)"><line x1="1.0444970338750994" x2="1.16371860944081" y1="314" y2="314" />
<line x1="1.0444970338750994" x2="1.0444970338750994" y1="308" y2="320" />
<line x1="1.16371860944081" x2="1.16371860944081" y1="308" y2="320" />
</g>
</g>
<text fill="hsl(135, 100%, 40%)" y="352">1000.Data.Fixed.Decimal.Decimal Int256 10.* (1000x times) 1.15 ms</text>
<g>
<title>1.15 ms ±  45 μs</title>
<rect y="358" rx="5" height="22" width="238.71932557012275" fill="hsl(135, 100%, 80%)" stroke="hsl(135, 100%, 55%)" />
<g stroke="hsl(135, 100%, 40%)"><line x1="229.40315969626573" x2="248.03549144397977" y1="369" y2="369" />
<line x1="229.40315969626573" x2="229.40315969626573" y1="363" y2="375" />
<line x1="248.03549144397977" x2="248.03549144397977" y1="363" y2="375" />
</g>
</g>
<text fill="hsl(157, 100%, 40%)" y="407">1000.Data.Fixed.Decimal.Decimal Int256 10./ (1000x times) 1.34 ms</text>
<g>
<title>1.34 ms ±  85 μs</title>
<rect y="413" rx="5" height="22" width="278.3940026374893" fill="hsl(157, 100%, 80%)" stroke="hsl(157, 100%, 55%)" />
<g stroke="hsl(157, 100%, 40%)"><line x1="260.8832905528598" x2="295.90471472211874" y1="424" y2="424" />
<line x1="260.8832905528598" x2="260.8832905528598" y1="418" y2="430" />
<line x1="295.90471472211874" x2="295.90471472211874" y1="418" y2="430" />
</g>
</g>
<text fill="hsl(180, 100%, 40%)" y="462">1000.Data.Decimal.+ (1000x times) 124  μs</text>
<g>
<title>124  μs ± 7.3 μs</title>
<rect y="468" rx="5" height="22" width="25.714481255151462" fill="hsl(180, 100%, 80%)" stroke="hsl(180, 100%, 55%)" />
<g stroke="hsl(180, 100%, 40%)"><line x1="24.19615940079206" x2="27.232803109510865" y1="479" y2="479" />
<line x1="24.19615940079206" x2="24.19615940079206" y1="473" y2="485" />
<line x1="27.232803109510865" x2="27.232803109510865" y1="473" y2="485" />
</g>
</g>
<text fill="hsl(202, 100%, 40%)" y="517">1000.Data.Decimal.- (1000x times) 125  μs</text>
<g>
<title>125  μs ±  11 μs</title>
<rect y="523" rx="5" height="22" width="25.904970854867052" fill="hsl(202, 100%, 80%)" stroke="hsl(202, 100%, 55%)" />
<g stroke="hsl(202, 100%, 40%)"><line x1="23.702518707244337" x2="28.107423002489767" y1="534" y2="534" />
<line x1="23.702518707244337" x2="23.702518707244337" y1="528" y2="540" />
<line x1="28.107423002489767" x2="28.107423002489767" y1="528" y2="540" />
</g>
</g>
<g fill="hsl(225, 100%, 40%)">
<text y="572">1000.Data.Decimal.* (1000x times)</text>
<text y="572" x="401.8870000293004" text-anchor="end">1.94 ms</text>
</g>
<g>
<title>1.94 ms ± 168 μs</title>
<rect y="578" rx="5" height="22" width="401.8870000293004" fill="hsl(225, 100%, 80%)" stroke="hsl(225, 100%, 55%)" />
<g stroke="hsl(225, 100%, 40%)"><line x1="367.0767566039384" x2="436.6972434546624" y1="589" y2="589" />
<line x1="367.0767566039384" x2="367.0767566039384" y1="583" y2="595" />
<line x1="436.6972434546624" x2="436.6972434546624" y1="583" y2="595" />
</g>
</g>
<g fill="hsl(247, 100%, 40%)">
<text y="627">1000.Data.Decimal./ (1000x times)</text>
<text y="627" x="858.4569153688118" text-anchor="end">4.15 ms</text>
</g>
<g>
<title>4.15 ms ± 394 μs</title>
<rect y="633" rx="5" height="22" width="858.4569153688118" fill="hsl(247, 100%, 80%)" stroke="hsl(247, 100%, 55%)" />
<g stroke="hsl(247, 100%, 40%)"><line x1="776.9138307376236" x2="940.0" y1="644" y2="644" />
<line x1="776.9138307376236" x2="776.9138307376236" y1="638" y2="650" />
<line x1="940.0" x2="940.0" y1="638" y2="650" />
</g>
</g>
<text fill="hsl(270, 100%, 40%)" y="682">1000.Double.+ (1000x times) 925  ns</text>
<g>
<title>925  ns ±  51 ns</title>
<rect y="688" rx="5" height="22" width="0.19162867386261306" fill="hsl(270, 100%, 80%)" stroke="hsl(270, 100%, 55%)" />
<g stroke="hsl(270, 100%, 40%)"><line x1="0.180998695602004" x2="0.20225865212322214" y1="699" y2="699" />
<line x1="0.180998695602004" x2="0.180998695602004" y1="693" y2="705" />
<line x1="0.20225865212322214" x2="0.20225865212322214" y1="693" y2="705" />
</g>
</g>
<text fill="hsl(292, 100%, 40%)" y="737">1000.Double.- (1000x times) 927  ns</text>
<g>
<title>927  ns ±  91 ns</title>
<rect y="743" rx="5" height="22" width="0.19194093050935218" fill="hsl(292, 100%, 80%)" stroke="hsl(292, 100%, 55%)" />
<g stroke="hsl(292, 100%, 40%)"><line x1="0.17306389805356742" x2="0.21081796296513694" y1="754" y2="754" />
<line x1="0.17306389805356742" x2="0.17306389805356742" y1="748" y2="760" />
<line x1="0.21081796296513694" x2="0.21081796296513694" y1="748" y2="760" />
</g>
</g>
<text fill="hsl(315, 100%, 40%)" y="792">1000.Double.* (1000x times) 935  ns</text>
<g>
<title>935  ns ±  82 ns</title>
<rect y="798" rx="5" height="22" width="0.1935846263063117" fill="hsl(315, 100%, 80%)" stroke="hsl(315, 100%, 55%)" />
<g stroke="hsl(315, 100%, 40%)"><line x1="0.17658527506579896" x2="0.21058397754682445" y1="809" y2="809" />
<line x1="0.17658527506579896" x2="0.17658527506579896" y1="803" y2="815" />
<line x1="0.21058397754682445" x2="0.21058397754682445" y1="803" y2="815" />
</g>
</g>
<text fill="hsl(337, 100%, 40%)" y="847">1000.Double./ (1000x times) 4.13 μs</text>
<g>
<title>4.13 μs ± 335 ns</title>
<rect y="853" rx="5" height="22" width="0.8543967196342247" fill="hsl(337, 100%, 80%)" stroke="hsl(337, 100%, 55%)" />
<g stroke="hsl(337, 100%, 40%)"><line x1="0.7849581301487625" x2="0.9238353091196869" y1="864" y2="864" />
<line x1="0.7849581301487625" x2="0.7849581301487625" y1="858" y2="870" />
<line x1="0.9238353091196869" x2="0.9238353091196869" y1="858" y2="870" />
</g>
</g>
</g>
</svg>
