<svg xmlns="http://www.w3.org/2000/svg" height="887" width="960.0" font-size="16" font-family="sans-serif" stroke-width="2">
<g transform="translate(10.0 0)">
<text fill="hsl(0, 100%, 40%)" y="22">1000.Data.Fixed.Decimal.Decimal Int128 10.+ (1000x times) 955  ns</text>
<g>
<title>955  ns ±  60 ns</title>
<rect y="28" rx="5" height="22" width="0.2873506588000104" fill="hsl(0, 100%, 80%)" stroke="hsl(0, 100%, 55%)" />
<g stroke="hsl(0, 100%, 40%)"><line x1="0.2693641527001656" x2="0.30533716489985513" y1="39" y2="39" />
<line x1="0.2693641527001656" x2="0.2693641527001656" y1="33" y2="45" />
<line x1="0.30533716489985513" x2="0.30533716489985513" y1="33" y2="45" />
</g>
</g>
<text fill="hsl(22, 100%, 40%)" y="77">1000.Data.Fixed.Decimal.Decimal Int128 10.- (1000x times) 1.47 μs</text>
<g>
<title>1.47 μs ± 108 ns</title>
<rect y="83" rx="5" height="22" width="0.44230743690177243" fill="hsl(22, 100%, 80%)" stroke="hsl(22, 100%, 55%)" />
<g stroke="hsl(22, 100%, 40%)"><line x1="0.4097290932842177" x2="0.47488578051932717" y1="94" y2="94" />
<line x1="0.4097290932842177" x2="0.4097290932842177" y1="88" y2="100" />
<line x1="0.47488578051932717" x2="0.47488578051932717" y1="88" y2="100" />
</g>
</g>
<text fill="hsl(45, 100%, 40%)" y="132">1000.Data.Fixed.Decimal.Decimal Int128 10.* (1000x times) 435  μs</text>
<g>
<title>435  μs ±  27 μs</title>
<rect y="138" rx="5" height="22" width="130.84845195674774" fill="hsl(45, 100%, 80%)" stroke="hsl(45, 100%, 55%)" />
<g stroke="hsl(45, 100%, 40%)"><line x1="122.67399369123427" x2="139.0229102222612" y1="149" y2="149" />
<line x1="122.67399369123427" x2="122.67399369123427" y1="143" y2="155" />
<line x1="139.0229102222612" x2="139.0229102222612" y1="143" y2="155" />
</g>
</g>
<text fill="hsl(67, 100%, 40%)" y="187">1000.Data.Fixed.Decimal.Decimal Int128 10./ (1000x times) 463  μs</text>
<g>
<title>463  μs ±  26 μs</title>
<rect y="193" rx="5" height="22" width="139.44139026426757" fill="hsl(67, 100%, 80%)" stroke="hsl(67, 100%, 55%)" />
<g stroke="hsl(67, 100%, 40%)"><line x1="131.50670793354118" x2="147.37607259499396" y1="204" y2="204" />
<line x1="131.50670793354118" x2="131.50670793354118" y1="198" y2="210" />
<line x1="147.37607259499396" x2="147.37607259499396" y1="198" y2="210" />
</g>
</g>
<text fill="hsl(90, 100%, 40%)" y="242">1000.Data.Fixed.Decimal.Decimal Int256 10.+ (1000x times) 2.53 μs</text>
<g>
<title>2.53 μs ± 212 ns</title>
<rect y="248" rx="5" height="22" width="0.7622662382366661" fill="hsl(90, 100%, 80%)" stroke="hsl(90, 100%, 55%)" />
<g stroke="hsl(90, 100%, 40%)"><line x1="0.6984116733890646" x2="0.8261208030842675" y1="259" y2="259" />
<line x1="0.6984116733890646" x2="0.6984116733890646" y1="253" y2="265" />
<line x1="0.8261208030842675" x2="0.8261208030842675" y1="253" y2="265" />
</g>
</g>
<text fill="hsl(112, 100%, 40%)" y="297">1000.Data.Fixed.Decimal.Decimal Int256 10.- (1000x times) 4.16 μs</text>
<g>
<title>4.16 μs ± 235 ns</title>
<rect y="303" rx="5" height="22" width="1.2526832746674648" fill="hsl(112, 100%, 80%)" stroke="hsl(112, 100%, 55%)" />
<g stroke="hsl(112, 100%, 40%)"><line x1="1.1819334209495367" x2="1.3234331283853928" y1="314" y2="314" />
<line x1="1.1819334209495367" x2="1.1819334209495367" y1="308" y2="320" />
<line x1="1.3234331283853928" x2="1.3234331283853928" y1="308" y2="320" />
</g>
</g>
<text fill="hsl(135, 100%, 40%)" y="352">1000.Data.Fixed.Decimal.Decimal Int256 10.* (1000x times) 843  μs</text>
<g>
<title>843  μs ±  59 μs</title>
<rect y="358" rx="5" height="22" width="253.8260114327962" fill="hsl(135, 100%, 80%)" stroke="hsl(135, 100%, 55%)" />
<g stroke="hsl(135, 100%, 40%)"><line x1="236.05106079003087" x2="271.60096207556154" y1="369" y2="369" />
<line x1="236.05106079003087" x2="236.05106079003087" y1="363" y2="375" />
<line x1="271.60096207556154" x2="271.60096207556154" y1="363" y2="375" />
</g>
</g>
<text fill="hsl(157, 100%, 40%)" y="407">1000.Data.Fixed.Decimal.Decimal Int256 10./ (1000x times) 943  μs</text>
<g>
<title>943  μs ±  85 μs</title>
<rect y="413" rx="5" height="22" width="283.71275911367417" fill="hsl(157, 100%, 80%)" stroke="hsl(157, 100%, 55%)" />
<g stroke="hsl(157, 100%, 40%)"><line x1="258.14299443214435" x2="309.282523795204" y1="424" y2="424" />
<line x1="258.14299443214435" x2="258.14299443214435" y1="418" y2="430" />
<line x1="309.282523795204" x2="309.282523795204" y1="418" y2="430" />
</g>
</g>
<text fill="hsl(180, 100%, 40%)" y="462">1000.Data.Decimal.+ (1000x times) 68.9 μs</text>
<g>
<title>68.9 μs ± 6.8 μs</title>
<rect y="468" rx="5" height="22" width="20.728951029450638" fill="hsl(180, 100%, 80%)" stroke="hsl(180, 100%, 55%)" />
<g stroke="hsl(180, 100%, 40%)"><line x1="18.69158099174801" x2="22.766321067153267" y1="479" y2="479" />
<line x1="18.69158099174801" x2="18.69158099174801" y1="473" y2="485" />
<line x1="22.766321067153267" x2="22.766321067153267" y1="473" y2="485" />
</g>
</g>
<text fill="hsl(202, 100%, 40%)" y="517">1000.Data.Decimal.- (1000x times) 72.2 μs</text>
<g>
<title>72.2 μs ± 6.7 μs</title>
<rect y="523" rx="5" height="22" width="21.722189578898366" fill="hsl(202, 100%, 80%)" stroke="hsl(202, 100%, 55%)" />
<g stroke="hsl(202, 100%, 40%)"><line x1="19.718669305285975" x2="23.725709852510757" y1="534" y2="534" />
<line x1="19.718669305285975" x2="19.718669305285975" y1="528" y2="540" />
<line x1="23.725709852510757" x2="23.725709852510757" y1="528" y2="540" />
</g>
</g>
<g fill="hsl(225, 100%, 40%)">
<text y="572">1000.Data.Decimal.* (1000x times)</text>
<text y="572" x="822.7233689218052" text-anchor="end">2.73 ms</text>
</g>
<g>
<title>2.73 ms ± 210 μs</title>
<rect y="578" rx="5" height="22" width="822.7233689218052" fill="hsl(225, 100%, 80%)" stroke="hsl(225, 100%, 55%)" />
<g stroke="hsl(225, 100%, 40%)"><line x1="759.3742087620542" x2="886.0725290815562" y1="589" y2="589" />
<line x1="759.3742087620542" x2="759.3742087620542" y1="583" y2="595" />
<line x1="886.0725290815562" x2="886.0725290815562" y1="583" y2="595" />
</g>
</g>
<g fill="hsl(247, 100%, 40%)">
<text y="627">1000.Data.Decimal./ (1000x times)</text>
<text y="627" x="873.0184481376319" text-anchor="end">2.90 ms</text>
</g>
<g>
<title>2.90 ms ± 223 μs</title>
<rect y="633" rx="5" height="22" width="873.0184481376319" fill="hsl(247, 100%, 80%)" stroke="hsl(247, 100%, 55%)" />
<g stroke="hsl(247, 100%, 40%)"><line x1="806.0368962752639" x2="940.0" y1="644" y2="644" />
<line x1="806.0368962752639" x2="806.0368962752639" y1="638" y2="650" />
<line x1="940.0" x2="940.0" y1="638" y2="650" />
</g>
</g>
<text fill="hsl(270, 100%, 40%)" y="682">1000.Double.+ (1000x times) 934  ns</text>
<g>
<title>934  ns ±  79 ns</title>
<rect y="688" rx="5" height="22" width="0.2810290743380494" fill="hsl(270, 100%, 80%)" stroke="hsl(270, 100%, 55%)" />
<g stroke="hsl(270, 100%, 40%)"><line x1="0.2573542860192665" x2="0.3047038626568323" y1="699" y2="699" />
<line x1="0.2573542860192665" x2="0.2573542860192665" y1="693" y2="705" />
<line x1="0.3047038626568323" x2="0.3047038626568323" y1="693" y2="705" />
</g>
</g>
<text fill="hsl(292, 100%, 40%)" y="737">1000.Double.- (1000x times) 921  ns</text>
<g>
<title>921  ns ±  57 ns</title>
<rect y="743" rx="5" height="22" width="0.27712631916550456" fill="hsl(292, 100%, 80%)" stroke="hsl(292, 100%, 55%)" />
<g stroke="hsl(292, 100%, 40%)"><line x1="0.2600271586038876" x2="0.29422547972712154" y1="754" y2="754" />
<line x1="0.2600271586038876" x2="0.2600271586038876" y1="748" y2="760" />
<line x1="0.29422547972712154" x2="0.29422547972712154" y1="748" y2="760" />
</g>
</g>
<text fill="hsl(315, 100%, 40%)" y="792">1000.Double.* (1000x times) 1.23 μs</text>
<g>
<title>1.23 μs ±  77 ns</title>
<rect y="798" rx="5" height="22" width="0.36938075722303565" fill="hsl(315, 100%, 80%)" stroke="hsl(315, 100%, 55%)" />
<g stroke="hsl(315, 100%, 40%)"><line x1="0.34634167914059505" x2="0.39241983530547625" y1="809" y2="809" />
<line x1="0.34634167914059505" x2="0.34634167914059505" y1="803" y2="815" />
<line x1="0.39241983530547625" x2="0.39241983530547625" y1="803" y2="815" />
</g>
</g>
<text fill="hsl(337, 100%, 40%)" y="847">1000.Double./ (1000x times) 3.10 μs</text>
<g>
<title>3.10 μs ± 278 ns</title>
<rect y="853" rx="5" height="22" width="0.9344127776486905" fill="hsl(337, 100%, 80%)" stroke="hsl(337, 100%, 55%)" />
<g stroke="hsl(337, 100%, 40%)"><line x1="0.8508668474310535" x2="1.0179587078663275" y1="864" y2="864" />
<line x1="0.8508668474310535" x2="0.8508668474310535" y1="858" y2="870" />
<line x1="1.0179587078663275" x2="1.0179587078663275" y1="858" y2="870" />
</g>
</g>
</g>
</svg>
