<svg xmlns="http://www.w3.org/2000/svg" height="887" width="960.0" font-size="16" font-family="sans-serif" stroke-width="2">
<g transform="translate(10.0 0)">
<text fill="hsl(0, 100%, 40%)" y="22">1000.Data.Fixed.Decimal.Decimal Int128 10.+ (1000x times) 679  ns</text>
<g>
<title>679  ns ±  54 ns</title>
<rect y="28" rx="5" height="22" width="0.14287995622081365" fill="hsl(0, 100%, 80%)" stroke="hsl(0, 100%, 55%)" />
<g stroke="hsl(0, 100%, 40%)"><line x1="0.1314683498676799" x2="0.15429156257394738" y1="39" y2="39" />
<line x1="0.1314683498676799" x2="0.1314683498676799" y1="33" y2="45" />
<line x1="0.15429156257394738" x2="0.15429156257394738" y1="33" y2="45" />
</g>
</g>
<text fill="hsl(22, 100%, 40%)" y="77">1000.Data.Fixed.Decimal.Decimal Int128 10.- (1000x times) 2.28 μs</text>
<g>
<title>2.28 μs ± 109 ns</title>
<rect y="83" rx="5" height="22" width="0.4787737658122567" fill="hsl(22, 100%, 80%)" stroke="hsl(22, 100%, 55%)" />
<g stroke="hsl(22, 100%, 40%)"><line x1="0.4559501325566488" x2="0.5015973990678647" y1="94" y2="94" />
<line x1="0.4559501325566488" x2="0.4559501325566488" y1="88" y2="100" />
<line x1="0.5015973990678647" x2="0.5015973990678647" y1="88" y2="100" />
</g>
</g>
<text fill="hsl(45, 100%, 40%)" y="132">1000.Data.Fixed.Decimal.Decimal Int128 10.* (1000x times) 656  μs</text>
<g>
<title>656  μs ±  42 μs</title>
<rect y="138" rx="5" height="22" width="137.96708389616526" fill="hsl(45, 100%, 80%)" stroke="hsl(45, 100%, 55%)" />
<g stroke="hsl(45, 100%, 40%)"><line x1="129.1510504570345" x2="146.78311733529603" y1="149" y2="149" />
<line x1="129.1510504570345" x2="129.1510504570345" y1="143" y2="155" />
<line x1="146.78311733529603" x2="146.78311733529603" y1="143" y2="155" />
</g>
</g>
<text fill="hsl(67, 100%, 40%)" y="187">1000.Data.Fixed.Decimal.Decimal Int128 10./ (1000x times) 708  μs</text>
<g>
<title>708  μs ±  56 μs</title>
<rect y="193" rx="5" height="22" width="148.87610918532386" fill="hsl(67, 100%, 80%)" stroke="hsl(67, 100%, 55%)" />
<g stroke="hsl(67, 100%, 40%)"><line x1="137.19027312101562" x2="160.5619452496321" y1="204" y2="204" />
<line x1="137.19027312101562" x2="137.19027312101562" y1="198" y2="210" />
<line x1="160.5619452496321" x2="160.5619452496321" y1="198" y2="210" />
</g>
</g>
<text fill="hsl(90, 100%, 40%)" y="242">1000.Data.Fixed.Decimal.Decimal Int256 10.+ (1000x times) 3.65 μs</text>
<g>
<title>3.65 μs ± 270 ns</title>
<rect y="248" rx="5" height="22" width="0.7670407831469818" fill="hsl(90, 100%, 80%)" stroke="hsl(90, 100%, 55%)" />
<g stroke="hsl(90, 100%, 40%)"><line x1="0.7101829328673677" x2="0.8238986334265959" y1="259" y2="259" />
<line x1="0.7101829328673677" x2="0.7101829328673677" y1="253" y2="265" />
<line x1="0.8238986334265959" x2="0.8238986334265959" y1="253" y2="265" />
</g>
</g>
<text fill="hsl(112, 100%, 40%)" y="297">1000.Data.Fixed.Decimal.Decimal Int256 10.- (1000x times) 6.08 μs</text>
<g>
<title>6.08 μs ± 328 ns</title>
<rect y="303" rx="5" height="22" width="1.2784012351534129" fill="hsl(112, 100%, 80%)" stroke="hsl(112, 100%, 55%)" />
<g stroke="hsl(112, 100%, 40%)"><line x1="1.2095261874704157" x2="1.34727628283641" y1="314" y2="314" />
<line x1="1.2095261874704157" x2="1.2095261874704157" y1="308" y2="320" />
<line x1="1.34727628283641" x2="1.34727628283641" y1="308" y2="320" />
</g>
</g>
<text fill="hsl(135, 100%, 40%)" y="352">1000.Data.Fixed.Decimal.Decimal Int256 10.* (1000x times) 1.21 ms</text>
<g>
<title>1.21 ms ± 111 μs</title>
<rect y="358" rx="5" height="22" width="254.11611742428806" fill="hsl(135, 100%, 80%)" stroke="hsl(135, 100%, 55%)" />
<g stroke="hsl(135, 100%, 40%)"><line x1="230.7444452956716" x2="277.48778955290453" y1="369" y2="369" />
<line x1="230.7444452956716" x2="230.7444452956716" y1="363" y2="375" />
<line x1="277.48778955290453" x2="277.48778955290453" y1="363" y2="375" />
</g>
</g>
<text fill="hsl(157, 100%, 40%)" y="407">1000.Data.Fixed.Decimal.Decimal Int256 10./ (1000x times) 1.37 ms</text>
<g>
<title>1.37 ms ±  56 μs</title>
<rect y="413" rx="5" height="22" width="287.4849006988216" fill="hsl(157, 100%, 80%)" stroke="hsl(157, 100%, 55%)" />
<g stroke="hsl(157, 100%, 40%)"><line x1="275.79906463451334" x2="299.17073676312987" y1="424" y2="424" />
<line x1="275.79906463451334" x2="275.79906463451334" y1="418" y2="430" />
<line x1="299.17073676312987" x2="299.17073676312987" y1="418" y2="430" />
</g>
</g>
<text fill="hsl(180, 100%, 40%)" y="462">1000.Data.Decimal.+ (1000x times) 118  μs</text>
<g>
<title>118  μs ±  10 μs</title>
<rect y="468" rx="5" height="22" width="24.866160446429678" fill="hsl(180, 100%, 80%)" stroke="hsl(180, 100%, 55%)" />
<g stroke="hsl(180, 100%, 40%)"><line x1="22.662152191784322" x2="27.070168701075033" y1="479" y2="479" />
<line x1="22.662152191784322" x2="22.662152191784322" y1="473" y2="485" />
<line x1="27.070168701075033" x2="27.070168701075033" y1="473" y2="485" />
</g>
</g>
<text fill="hsl(202, 100%, 40%)" y="517">1000.Data.Decimal.- (1000x times) 132  μs</text>
<g>
<title>132  μs ± 5.2 μs</title>
<rect y="523" rx="5" height="22" width="27.67363008946421" fill="hsl(202, 100%, 80%)" stroke="hsl(202, 100%, 55%)" />
<g stroke="hsl(202, 100%, 40%)"><line x1="26.571625962141535" x2="28.775634216786887" y1="534" y2="534" />
<line x1="26.571625962141535" x2="26.571625962141535" y1="528" y2="540" />
<line x1="28.775634216786887" x2="28.775634216786887" y1="528" y2="540" />
</g>
</g>
<g fill="hsl(225, 100%, 40%)">
<text y="572">1000.Data.Decimal.* (1000x times)</text>
<text y="572" x="459.4624750663035" text-anchor="end">2.19 ms</text>
</g>
<g>
<title>2.19 ms ± 193 μs</title>
<rect y="578" rx="5" height="22" width="459.4624750663035" fill="hsl(225, 100%, 80%)" stroke="hsl(225, 100%, 55%)" />
<g stroke="hsl(225, 100%, 40%)"><line x1="418.87198760717155" x2="500.0529625254355" y1="589" y2="589" />
<line x1="418.87198760717155" x2="418.87198760717155" y1="583" y2="595" />
<line x1="500.0529625254355" x2="500.0529625254355" y1="583" y2="595" />
</g>
</g>
<g fill="hsl(247, 100%, 40%)">
<text y="627">1000.Data.Decimal./ (1000x times)</text>
<text y="627" x="893.2566557427671" text-anchor="end">4.25 ms</text>
</g>
<g>
<title>4.25 ms ± 222 μs</title>
<rect y="633" rx="5" height="22" width="893.2566557427671" fill="hsl(247, 100%, 80%)" stroke="hsl(247, 100%, 55%)" />
<g stroke="hsl(247, 100%, 40%)"><line x1="846.5133114855341" x2="940.0" y1="644" y2="644" />
<line x1="846.5133114855341" x2="846.5133114855341" y1="638" y2="650" />
<line x1="940.0" x2="940.0" y1="638" y2="650" />
</g>
</g>
<text fill="hsl(270, 100%, 40%)" y="682">1000.Double.+ (1000x times) 963  ns</text>
<g>
<title>963  ns ±  54 ns</title>
<rect y="688" rx="5" height="22" width="0.20241355167904632" fill="hsl(270, 100%, 80%)" stroke="hsl(270, 100%, 55%)" />
<g stroke="hsl(270, 100%, 40%)"><line x1="0.19100194532591258" x2="0.21382515803218005" y1="699" y2="699" />
<line x1="0.19100194532591258" x2="0.19100194532591258" y1="693" y2="705" />
<line x1="0.21382515803218005" x2="0.21382515803218005" y1="693" y2="705" />
</g>
</g>
<text fill="hsl(292, 100%, 40%)" y="737">1000.Double.- (1000x times) 983  ns</text>
<g>
<title>983  ns ±  82 ns</title>
<rect y="743" rx="5" height="22" width="0.20680009157461887" fill="hsl(292, 100%, 80%)" stroke="hsl(292, 100%, 55%)" />
<g stroke="hsl(292, 100%, 40%)"><line x1="0.18958153992853982" x2="0.22401864322069792" y1="754" y2="754" />
<line x1="0.18958153992853982" x2="0.18958153992853982" y1="748" y2="760" />
<line x1="0.22401864322069792" x2="0.22401864322069792" y1="748" y2="760" />
</g>
</g>
<text fill="hsl(315, 100%, 40%)" y="792">1000.Double.* (1000x times) 983  ns</text>
<g>
<title>983  ns ±  82 ns</title>
<rect y="798" rx="5" height="22" width="0.20680009157461887" fill="hsl(315, 100%, 80%)" stroke="hsl(315, 100%, 55%)" />
<g stroke="hsl(315, 100%, 40%)"><line x1="0.18958153992853982" x2="0.22401864322069792" y1="809" y2="809" />
<line x1="0.18958153992853982" x2="0.18958153992853982" y1="803" y2="815" />
<line x1="0.22401864322069792" x2="0.22401864322069792" y1="803" y2="815" />
</g>
</g>
<text fill="hsl(337, 100%, 40%)" y="847">1000.Double./ (1000x times) 4.46 μs</text>
<g>
<title>4.46 μs ± 434 ns</title>
<rect y="853" rx="5" height="22" width="0.9374942671491255" fill="hsl(337, 100%, 80%)" stroke="hsl(337, 100%, 55%)" />
<g stroke="hsl(337, 100%, 40%)"><line x1="0.8461988930280129" x2="1.0287896412702382" y1="864" y2="864" />
<line x1="0.8461988930280129" x2="0.8461988930280129" y1="858" y2="870" />
<line x1="1.0287896412702382" x2="1.0287896412702382" y1="858" y2="870" />
</g>
</g>
</g>
</svg>
